<svg width="95" height="95" viewBox="0 0 95 95" fill="none" xmlns="http://www.w3.org/2000/svg">
<path d="M91.078 0H3.92201C2.58426 0 1.48975 1.09452 1.48975 2.43226C1.48975 3.77 2.58426 4.86452 3.92201 4.86452H9.17163V92.5069C9.17163 93.3988 9.65808 94.2298 10.4486 94.6554C11.2391 95.0811 12.1917 95.0405 12.9416 94.5338L23.5017 87.5005L34.1023 94.5541C34.913 95.1013 35.9873 95.1013 36.798 94.5541L47.3581 87.5208L57.9587 94.5743C58.7695 95.1216 59.8437 95.1216 60.6545 94.5743L71.2145 87.5411L81.8151 94.5946C82.2205 94.8581 82.6867 95 83.1529 95C83.538 95 83.9433 94.8987 84.3082 94.7162C85.0987 94.2906 85.5851 93.4596 85.5851 92.5677L85.5446 4.92532H91.078C92.4157 4.92532 93.5102 3.83081 93.5102 2.49307C93.5102 1.15532 92.4157 0 91.078 0ZM80.7409 87.9667L72.5725 82.5347C71.7618 81.9874 70.6875 81.9874 69.8768 82.5347L59.3167 89.5882L48.7161 82.5347C47.9054 81.9874 46.8311 81.9874 46.0204 82.5347L35.4603 89.5679L24.8597 82.5347C24.049 81.9874 22.9747 81.9874 22.164 82.5347L14.0362 87.9464V4.84425H80.7206L80.7409 87.9667Z" fill="white"/>
<path d="M25.2243 38.8351H50.7022C52.0399 38.8351 53.1344 37.7406 53.1344 36.4028C53.1344 35.0651 52.0399 33.9706 50.7022 33.9706H25.2243C23.8865 33.9706 22.792 35.0651 22.792 36.4028C22.792 37.7406 23.8662 38.8351 25.2243 38.8351Z" fill="white"/>
<path d="M25.2243 47.2871H44.3175C45.6552 47.2871 46.7497 46.1926 46.7497 44.8549C46.7497 43.5171 45.6552 42.4226 44.3175 42.4226H25.2243C23.8865 42.4226 22.792 43.5171 22.792 44.8549C22.792 46.1926 23.8662 47.2871 25.2243 47.2871Z" fill="white"/>
<path d="M63.4313 38.8351H69.7957C71.1334 38.8351 72.2279 37.7406 72.2279 36.4028C72.2279 35.0651 71.1334 33.9706 69.7957 33.9706H63.4313C62.0935 33.9706 60.999 35.0651 60.999 36.4028C60.999 37.7406 62.0733 38.8351 63.4313 38.8351Z" fill="white"/>
<path d="M63.4313 47.2871H69.7957C71.1334 47.2871 72.2279 46.1926 72.2279 44.8549C72.2279 43.5171 71.1334 42.4226 69.7957 42.4226H63.4313C62.0935 42.4226 60.999 43.5171 60.999 44.8549C60.999 46.1926 62.0733 47.2871 63.4313 47.2871Z" fill="white"/>
<path d="M25.2243 19.3162H50.7022C52.0399 19.3162 53.1344 18.2217 53.1344 16.8839C53.1344 15.5462 52.0399 14.4517 50.7022 14.4517H25.2243C23.8865 14.4517 22.792 15.5462 22.792 16.8839C22.792 18.2217 23.8662 19.3162 25.2243 19.3162Z" fill="white"/>
<path d="M25.2243 27.7479H44.3175C45.6552 27.7479 46.7497 26.6534 46.7497 25.3157C46.7497 23.9779 45.6552 22.8834 44.3175 22.8834H25.2243C23.8865 22.8834 22.792 23.9779 22.792 25.3157C22.792 26.6534 23.8662 27.7479 25.2243 27.7479Z" fill="white"/>
<path d="M63.4313 19.3162H69.7957C71.1334 19.3162 72.2279 18.2217 72.2279 16.8839C72.2279 15.5462 71.1334 14.4517 69.7957 14.4517H63.4313C62.0935 14.4517 60.999 15.5462 60.999 16.8839C60.999 18.2217 62.0733 19.3162 63.4313 19.3162Z" fill="white"/>
<path d="M63.4313 27.7479H69.7957C71.1334 27.7479 72.2279 26.6534 72.2279 25.3157C72.2279 23.9779 71.1334 22.8834 69.7957 22.8834H63.4313C62.0935 22.8834 60.999 23.9779 60.999 25.3157C60.999 26.6534 62.0733 27.7479 63.4313 27.7479Z" fill="white"/>
<path d="M25.2243 58.5972H50.7022C52.0399 58.5972 53.1344 57.5027 53.1344 56.1649C53.1344 54.8272 52.0399 53.7327 50.7022 53.7327H25.2243C23.8865 53.7327 22.792 54.8272 22.792 56.1649C22.792 57.5027 23.8662 58.5972 25.2243 58.5972Z" fill="white"/>
<path d="M25.2243 67.0291H44.3175C45.6552 67.0291 46.7497 65.9346 46.7497 64.5968C46.7497 63.2591 45.6552 62.1646 44.3175 62.1646H25.2243C23.8865 62.1646 22.792 63.2591 22.792 64.5968C22.792 65.9346 23.8662 67.0291 25.2243 67.0291Z" fill="white"/>
<path d="M63.4313 58.5972H69.7957C71.1334 58.5972 72.2279 57.5027 72.2279 56.1649C72.2279 54.8272 71.1334 53.7327 69.7957 53.7327H63.4313C62.0935 53.7327 60.999 54.8272 60.999 56.1649C60.999 57.5027 62.0733 58.5972 63.4313 58.5972Z" fill="white"/>
<path d="M63.4313 67.0291H69.7957C71.1334 67.0291 72.2279 65.9346 72.2279 64.5968C72.2279 63.2591 71.1334 62.1646 69.7957 62.1646H63.4313C62.0935 62.1646 60.999 63.2591 60.999 64.5968C60.999 65.9346 62.0733 67.0291 63.4313 67.0291Z" fill="white"/>
</svg>
