<svg width="95" height="95" viewBox="0 0 95 95" fill="none" xmlns="http://www.w3.org/2000/svg">
<path d="M32.3401 38.7334C32.3401 37.439 31.2811 36.38 29.9867 36.38H11.12C9.82564 36.38 8.7666 37.439 8.7666 38.7334C8.7666 40.0278 9.82564 41.0869 11.12 41.0869H29.9867C31.2811 41.0869 32.3401 40.0278 32.3401 38.7334Z" fill="white"/>
<path d="M83.8802 36.38H65.0136C63.7192 36.38 62.6602 37.439 62.6602 38.7334C62.6602 40.0278 63.7192 41.0869 65.0136 41.0869H83.8802C85.1746 41.0869 86.2336 40.0278 86.2336 38.7334C86.2336 37.439 85.1942 36.38 83.8802 36.38Z" fill="white"/>
<path d="M47.4999 23.5735C48.7943 23.5735 49.8533 22.5145 49.8533 21.2201V2.35343C49.8533 1.05904 48.7943 0 47.4999 0C46.2055 0 45.1465 1.05904 45.1465 2.35343V21.2201C45.1465 22.5145 46.2055 23.5735 47.4999 23.5735Z" fill="white"/>
<path d="M59.8749 28.7117C60.4829 28.7117 61.0713 28.4764 61.5419 28.0253L74.8976 14.6696C75.8194 13.7479 75.8194 12.2574 74.8976 11.3356C73.9759 10.4138 72.4854 10.4138 71.5636 11.3356L58.2079 24.6913C57.2862 25.6131 57.2862 27.1036 58.2079 28.0253C58.6786 28.4764 59.2866 28.7117 59.8749 28.7117Z" fill="white"/>
<path d="M33.4582 28.0253C33.9092 28.4764 34.5172 28.7117 35.1252 28.7117C35.7331 28.7117 36.3215 28.4764 36.7922 28.0253C37.7139 27.1036 37.7139 25.6131 36.7922 24.6913L23.4365 11.3356C22.5147 10.4138 21.0242 10.4138 20.1025 11.3356C19.1807 12.2574 19.1807 13.7479 20.1025 14.6696L33.4582 28.0253Z" fill="white"/>
<path d="M75.7803 53.5797C73.9956 52.0499 71.7402 51.2066 69.4457 51.2066H67.308H59.6201H55.9723V41.6949C55.9723 37.1449 54.6191 33.8305 51.9322 31.8497C47.6961 28.751 41.9498 30.4965 41.6948 30.5749C40.7142 30.8887 40.0474 31.7909 40.0474 32.8107V44.2836C40.0474 47.7745 38.3804 50.7359 35.066 53.109C32.5557 54.9133 29.9865 55.737 29.6531 55.835L29.4178 55.8939C28.5353 54.8937 27.2409 54.2661 25.7896 54.2661H16.8466C14.1794 54.2661 12.0024 56.443 12.0024 59.1102V88.4496C12.0024 91.1168 14.1794 93.2937 16.8466 93.2937H25.8288C27.0055 93.2937 28.1038 92.8623 28.9275 92.1562C30.7318 93.9213 33.1833 95 35.8309 95H44.7543H45.6761H63.9347C66.7588 95 69.2495 94.3135 71.1519 93.0388C73.5838 91.3914 75.0939 88.783 75.5253 85.449L79.1535 62.8953C79.7223 59.4044 78.4279 55.835 75.7803 53.5797ZM25.9661 88.4496C25.9661 88.528 25.9073 88.5869 25.8288 88.5869H16.8466C16.7681 88.5869 16.7093 88.528 16.7093 88.4496V59.1102C16.7093 59.0318 16.7681 58.9729 16.8466 58.9729H25.8288C25.9073 58.9729 25.9661 59.0318 25.9661 59.1102V88.4496ZM74.5055 62.1697L70.8773 84.7626C70.8773 84.7822 70.8773 84.8214 70.8577 84.8606C70.7008 86.2138 70.1909 90.3127 63.9347 90.3127H45.6761H44.7543H35.8309C33.3206 90.3127 31.124 88.43 30.7318 85.9393C30.7122 85.8412 30.6926 85.7431 30.673 85.6647V60.4438L30.8102 60.4046C30.8495 60.4046 30.8691 60.385 30.9083 60.385C31.0456 60.3458 34.3796 59.4044 37.694 57.0313C42.3028 53.7562 44.7543 49.3435 44.7543 44.2836V34.7523C46.0487 34.615 47.8334 34.6738 49.1474 35.6348C50.5594 36.6742 51.2654 38.7139 51.2654 41.6753V53.5404C51.2654 54.8348 52.3245 55.8939 53.6189 55.8939H59.6201H67.308H69.4457C70.6224 55.8939 71.7795 56.3449 72.7208 57.1294C74.1329 58.3453 74.7997 60.2673 74.5055 62.1697Z" fill="white"/>
</svg>
