<svg width="1246" height="248" viewBox="0 0 1246 248" fill="none" xmlns="http://www.w3.org/2000/svg">
<path d="M438.886 119.268C444.486 122.19 448.869 126.208 452.034 131.321C455.2 136.434 456.782 142.339 456.782 149.035C456.782 159.505 453.069 168.209 445.643 175.149C438.217 182.088 429.147 185.558 418.433 185.558H363.648V57.7266H414.416C424.886 57.7266 433.712 61.1354 440.895 67.9531C448.2 74.649 451.852 83.0494 451.852 93.1541C451.852 104.233 447.53 112.937 438.886 119.268ZM414.416 77.4491H384.649V111.05H414.416C419.042 111.05 422.938 109.468 426.103 106.302C429.268 103.015 430.851 98.9978 430.851 94.2498C430.851 89.5018 429.268 85.5451 426.103 82.3798C422.938 79.0927 419.042 77.4491 414.416 77.4491ZM418.433 165.835C423.303 165.835 427.381 164.131 430.668 160.722C434.077 157.191 435.782 152.93 435.782 147.939C435.782 142.947 434.077 138.747 430.668 135.338C427.381 131.808 423.303 130.043 418.433 130.043H384.649V165.835H418.433ZM490.244 148.304C491.705 155.244 495.053 160.6 500.288 164.374C505.523 168.027 511.914 169.853 519.462 169.853C529.932 169.853 537.785 166.079 543.02 158.531L559.273 168.027C550.264 181.297 536.933 187.932 519.28 187.932C504.427 187.932 492.435 183.427 483.305 174.418C474.174 165.287 469.608 153.783 469.608 139.904C469.608 126.268 474.113 114.885 483.122 105.755C492.131 96.5021 503.697 91.8758 517.819 91.8758C531.211 91.8758 542.168 96.5629 550.69 105.937C559.334 115.311 563.656 126.695 563.656 140.086C563.656 142.156 563.412 144.895 562.925 148.304H490.244ZM490.061 132.234H543.75C542.411 124.808 539.307 119.207 534.437 115.433C529.689 111.659 524.089 109.772 517.636 109.772C510.332 109.772 504.244 111.781 499.375 115.798C494.505 119.816 491.401 125.294 490.061 132.234ZM595.157 119.451C595.157 122.494 596.8 124.929 600.087 126.755C603.496 128.46 607.575 129.982 612.323 131.321C617.192 132.538 622.062 133.999 626.932 135.704C631.802 137.408 635.88 140.33 639.167 144.469C642.576 148.487 644.28 153.6 644.28 159.809C644.28 168.574 640.872 175.453 634.054 180.444C627.358 185.436 618.897 187.932 608.67 187.932C599.661 187.932 591.931 186.045 585.478 182.271C579.026 178.497 574.339 173.262 571.417 166.566L588.4 156.704C591.565 165.47 598.322 169.853 608.67 169.853C619.019 169.853 624.193 166.444 624.193 159.626C624.193 156.704 622.488 154.33 619.079 152.504C615.792 150.678 611.714 149.156 606.844 147.939C602.096 146.6 597.287 145.078 592.418 143.373C587.548 141.669 583.408 138.869 580 134.973C576.713 130.956 575.069 125.903 575.069 119.816C575.069 111.416 578.234 104.659 584.565 99.5457C591.017 94.4324 598.992 91.8758 608.488 91.8758C616.036 91.8758 622.732 93.5802 628.575 96.989C634.541 100.276 639.106 104.902 642.272 110.868L625.654 120.181C622.488 113.242 616.766 109.772 608.488 109.772C604.714 109.772 601.548 110.624 598.992 112.329C596.435 113.911 595.157 116.285 595.157 119.451ZM709.001 113.242H686.356V157.07C686.356 160.844 687.208 163.583 688.913 165.287C690.617 166.87 693.113 167.783 696.4 168.027C699.809 168.148 704.009 168.087 709.001 167.844V185.558C693.904 187.384 683.069 186.106 676.495 181.723C669.921 177.218 666.634 169.001 666.634 157.07V113.242H649.833V94.2498H666.634V74.5273L686.356 68.6836V94.2498H709.001V113.242Z" fill="#2D9CDB"/>
<path d="M789.504 187.932C770.269 187.932 754.32 181.601 741.659 168.94C728.998 156.157 722.667 140.391 722.667 121.642C722.667 102.894 728.998 87.1887 741.659 74.5273C754.32 61.7442 770.269 55.3526 789.504 55.3526C801.07 55.3526 811.723 58.0918 821.462 63.5703C831.323 69.0488 838.993 76.4752 844.472 85.8495L826.21 96.4412C822.801 90.1105 817.81 85.119 811.236 81.4667C804.783 77.6926 797.539 75.8056 789.504 75.8056C775.869 75.8056 764.79 80.1275 756.268 88.7713C747.868 97.4151 743.668 108.372 743.668 121.642C743.668 134.912 747.868 145.869 756.268 154.513C764.79 163.157 775.869 167.479 789.504 167.479C797.539 167.479 804.844 165.653 811.418 162C817.992 158.226 822.923 153.174 826.21 146.843L844.472 157.252C839.115 166.627 831.506 174.114 821.645 179.714C811.905 185.193 801.192 187.932 789.504 187.932ZM881.254 109.59C886.246 98.2673 895.62 92.6063 909.377 92.6063V113.972C901.829 113.485 895.255 115.311 889.655 119.451C884.055 123.468 881.254 130.164 881.254 139.539V185.558H861.532V94.2498H881.254V109.59ZM935.192 148.304C936.653 155.244 940.001 160.6 945.236 164.374C950.471 168.027 956.862 169.853 964.41 169.853C974.88 169.853 982.733 166.079 987.968 158.531L1004.22 168.027C995.212 181.297 981.881 187.932 964.228 187.932C949.375 187.932 937.383 183.427 928.252 174.418C919.122 165.287 914.556 153.783 914.556 139.904C914.556 126.268 919.061 114.885 928.07 105.755C937.079 96.5021 948.645 91.8758 962.767 91.8758C976.159 91.8758 987.116 96.5629 995.638 105.937C1004.28 115.311 1008.6 126.695 1008.6 140.086C1008.6 142.156 1008.36 144.895 1007.87 148.304H935.192ZM935.009 132.234H988.698C987.359 124.808 984.255 119.207 979.385 115.433C974.637 111.659 969.037 109.772 962.584 109.772C955.28 109.772 949.192 111.781 944.323 115.798C939.453 119.816 936.348 125.294 935.009 132.234ZM1097.74 57.7266H1117.46V185.558H1097.74V172.409C1090.31 182.758 1079.66 187.932 1065.78 187.932C1053.24 187.932 1042.53 183.305 1033.64 174.053C1024.75 164.679 1020.31 153.296 1020.31 139.904C1020.31 126.39 1024.75 115.007 1033.64 105.755C1042.53 96.5021 1053.24 91.8758 1065.78 91.8758C1079.66 91.8758 1090.31 96.989 1097.74 107.216V57.7266ZM1048.25 160.905C1053.73 166.383 1060.61 169.122 1068.89 169.122C1077.16 169.122 1084.04 166.383 1089.52 160.905C1095 155.304 1097.74 148.304 1097.74 139.904C1097.74 131.503 1095 124.564 1089.52 119.086C1084.04 113.485 1077.16 110.685 1068.89 110.685C1060.61 110.685 1053.73 113.485 1048.25 119.086C1042.77 124.564 1040.03 131.503 1040.03 139.904C1040.03 148.304 1042.77 155.304 1048.25 160.905ZM1159.08 76.9013C1156.64 79.3362 1153.72 80.5536 1150.31 80.5536C1146.9 80.5536 1143.92 79.3362 1141.36 76.9013C1138.93 74.3447 1137.71 71.3619 1137.71 67.9531C1137.71 64.5443 1138.93 61.6224 1141.36 59.1875C1143.8 56.6309 1146.78 55.3526 1150.31 55.3526C1153.84 55.3526 1156.82 56.6309 1159.26 59.1875C1161.69 61.6224 1162.91 64.5443 1162.91 67.9531C1162.91 71.3619 1161.63 74.3447 1159.08 76.9013ZM1140.45 185.558V94.2498H1160.17V185.558H1140.45ZM1234.02 113.242H1211.38V157.07C1211.38 160.844 1212.23 163.583 1213.93 165.287C1215.64 166.87 1218.13 167.783 1221.42 168.027C1224.83 168.148 1229.03 168.087 1234.02 167.844V185.558C1218.93 187.384 1208.09 186.106 1201.52 181.723C1194.94 177.218 1191.65 169.001 1191.65 157.07V113.242H1174.85V94.2498H1191.65V74.5273L1211.38 68.6836V94.2498H1234.02V113.242Z" fill="#242424"/>
<rect width="210.736" height="138.122" rx="18.8704" transform="matrix(-0.707107 -0.707107 -0.707107 0.707107 247.41 149.751)" fill="#242424"/>
<rect width="145.685" height="18.4914" transform="matrix(0.707107 0.707107 0.707107 -0.707107 25.7842 73.3947)" fill="white"/>
<rect x="298.721" y="98.4531" width="210.736" height="138.122" rx="18.8704" transform="rotate(135 298.721 98.4531)" fill="#2D9CDB"/>
<rect x="132.928" y="147.094" width="32.5493" height="32.5493" rx="7.54815" transform="rotate(135 132.928 147.094)" fill="white"/>
<rect x="273.937" y="73.5338" width="210.828" height="18.4914" transform="rotate(135 273.937 73.5338)" fill="white"/>
</svg>
