<svg width="94" height="94" viewBox="0 0 94 94" fill="none" xmlns="http://www.w3.org/2000/svg">
<g clip-path="url(#clip0)">
<path d="M90.0766 73.0761L73.7584 87.6592H54.4378V82.9021H73.232C73.8169 82.9021 74.3628 82.6877 74.7917 82.2977L93.196 65.7066C94.1513 64.8487 94.2293 63.367 93.3715 62.4117C92.5136 61.4564 91.0319 61.3784 90.0766 62.2363L72.3352 78.2426H54.4378V73.4855H70.9899C71.5748 73.4855 72.1402 73.2711 72.5691 72.8811L93.235 54.0284C93.9563 53.385 94.1903 52.3518 93.8394 51.4549C93.4884 50.5581 92.6306 49.9537 91.6558 49.9537H22.9906C22.4057 49.9537 21.8403 50.1682 21.4114 50.5581L0.765033 69.4108C0.0436777 70.0542 -0.190275 71.0875 0.160654 71.9843C0.511584 72.8811 1.36941 73.4855 2.34422 73.4855H21.8988V78.2426H2.34422C1.05747 78.2426 0.00468552 79.2953 0.00468552 80.5821C0.00468552 81.8688 1.05747 82.9216 2.34422 82.9216H21.8988V87.6787H2.34422C1.05747 87.6787 0.00468552 88.7314 0.00468552 90.0182C0.00468552 91.3049 1.05747 92.3577 2.34422 92.3577H24.2383H52.1177H74.6747C75.2596 92.3577 75.8055 92.1433 76.2344 91.7533L93.2155 76.5659C94.1708 75.7081 94.2683 74.2264 93.3909 73.2711C92.5136 72.2962 91.0319 72.2183 90.0766 73.0761ZM64.5367 54.6133L48.9984 68.787H29.7557L45.2941 54.6133H64.5367ZM70.0736 68.8065H55.939L71.4773 54.6328H85.612L70.0736 68.8065ZM23.9069 54.6133H38.334L22.7956 68.787H8.36851L23.9069 54.6133ZM26.5584 87.6592V73.4855H49.7587V87.6592H26.5584Z" fill="white"/>
<path d="M44.3193 25.1742H50.1486C52.3712 25.1742 54.1843 26.9874 54.1843 29.2099C54.1843 31.4325 52.3712 33.2456 50.1486 33.2456H39.6987C38.412 33.2456 37.3592 34.2984 37.3592 35.5851C37.3592 36.8719 38.412 37.9247 39.6987 37.9247H44.9042V41.7459C44.9042 43.0327 45.9569 44.0854 47.2437 44.0854C48.5304 44.0854 49.5832 43.0327 49.5832 41.7459V37.9247H50.2071C50.2266 37.9247 50.2461 37.9247 50.2656 37.9247C55.0226 37.8662 58.8634 33.967 58.8634 29.2099C58.8634 24.3944 54.9446 20.4952 50.1486 20.4952H44.3193C42.0967 20.4952 40.2836 18.682 40.2836 16.4595C40.2836 14.2369 42.0967 12.4238 44.3193 12.4238H54.5937C55.8804 12.4238 56.9332 11.371 56.9332 10.0843C56.9332 8.79752 55.8804 7.74473 54.5937 7.74473H49.5832V3.98199C49.5832 2.69524 48.5304 1.64246 47.2437 1.64246C45.9569 1.64246 44.9042 2.69524 44.9042 3.98199V7.72524H44.3388C39.5232 7.72524 35.624 11.6439 35.624 16.44C35.624 21.236 39.5037 25.1742 44.3193 25.1742Z" fill="white"/>
</g>
<defs>
<clipPath id="clip0">
<rect width="94" height="94" fill="white"/>
</clipPath>
</defs>
</svg>
