<svg width="93" height="93" viewBox="0 0 93 93" fill="none" xmlns="http://www.w3.org/2000/svg">
<g clip-path="url(#clip0)">
<path d="M90.6007 24.0661L72.3471 0.915668C71.8893 0.338399 71.2125 0 70.4759 0H22.5427C21.8062 0 21.1294 0.338399 20.6716 0.915668L2.41794 24.0661C2.07954 24.4842 1.90039 25.0017 1.90039 25.5392V90.6113C1.90039 91.9251 2.9753 93 4.28909 93H88.7097C90.0235 93 91.0984 91.9251 91.0984 90.6113V25.5392C91.1183 25.0017 90.9391 24.4842 90.6007 24.0661ZM84.1114 23.5486H48.898V4.7774H69.3214L84.1114 23.5486ZM23.6973 4.7774H44.1206V23.5486H8.90724L23.6973 4.7774ZM6.67779 88.2226V28.326H86.321V88.2226H6.67779Z" fill="white"/>
<path d="M57.8356 47.555L41.8314 63.5593L35.1828 56.9108C34.2473 55.9752 32.7344 55.9752 31.7988 56.9108C30.8633 57.8463 30.8633 59.3592 31.7988 60.2948L40.1394 68.6353C40.5972 69.0931 41.2143 69.332 41.8314 69.332C42.4485 69.332 43.0456 69.0931 43.5234 68.6353L61.1997 50.9589C62.1353 50.0234 62.1353 48.5105 61.1997 47.575C60.2841 46.6195 58.7712 46.6195 57.8356 47.555Z" fill="white"/>
</g>
<defs>
<clipPath id="clip0">
<rect width="93" height="93" fill="white"/>
</clipPath>
</defs>
</svg>
